<?xml version="1.0" encoding="UTF-8"?>
<svg width="24px" height="24px" viewBox="0 0 24 24" version="1.1" xmlns="http://www.w3.org/2000/svg" xmlns:xlink="http://www.w3.org/1999/xlink">
    <!-- Generator: Sketch 55.2 (78181) - https://sketchapp.com -->
    <title>FullScreenIcon</title>
    <desc>Created with Sketch.</desc>
    <g id="FullScreenIcon" stroke="none" stroke-width="1" fill="none" fill-rule="evenodd">
        <path d="M20.3333333,4 C21.2526042,4 22,4.74739583 22,5.66666667 L22,19 C22,19.9192708 21.2526042,20.6666667 20.3333333,20.6666667 L3.66666667,20.6666667 C2.74739583,20.6666667 2,19.9192708 2,19 L2,5.66666667 C2,4.74739583 2.74739583,4 3.66666667,4 L20.3333333,4 Z M20.3333333,19 C20.3333333,19 20.3359375,19 20.3333333,19 L20.3333333,5.66666667 L3.66666667,5.66666667 L3.66666667,19 L20.3333333,19 Z M9.08333333,12.9947917 L9.671875,13.5833333 L6.75520833,16.5 L7.83333333,16.5 L7.83333333,17.3333333 L5.75,17.3333333 C5.52083333,17.3333333 5.33333333,17.1458333 5.33333333,16.9166667 L5.33333333,14.8333333 L6.16666667,14.8333333 L6.16666667,15.9114583 L9.08333333,12.9947917 Z M18.25,7.33333333 C18.4791667,7.33333333 18.6666667,7.52083333 18.6666667,7.75 L18.6666667,9.83333333 L17.8333333,9.83333333 L17.8333333,8.75520833 L14.9166667,11.671875 L14.328125,11.0833333 L17.2447917,8.16666667 L16.1666667,8.16666667 L16.1666667,7.33333333 L18.25,7.33333333 Z" id="Combined-Shape" fill="#000000" fill-rule="nonzero"></path>
    </g>
</svg>