<?xml version="1.0" encoding="UTF-8"?>
<svg width="24px" height="24px" viewBox="0 0 24 24" version="1.1" xmlns="http://www.w3.org/2000/svg" xmlns:xlink="http://www.w3.org/1999/xlink">
    <!-- Generator: Sketch 55.2 (78181) - https://sketchapp.com -->
    <title>SoundIcon</title>
    <desc>Created with Sketch.</desc>
    <g id="SoundIcon" stroke="none" stroke-width="1" fill="none" fill-rule="evenodd">
        <path d="M10.6953125,5.90625 C10.9817708,6.04427083 11.1666667,6.3359375 11.1666667,6.65625 L11.1666667,18.3229167 C11.1666667,18.6432292 10.984375,18.9348958 10.6953125,19.0729167 C10.578125,19.1302083 10.4557292,19.15625 10.3333333,19.15625 C10.1484375,19.15625 9.96354167,19.09375 9.8125,18.9739583 L5.875,15.8229167 L3.66666667,15.8229167 C2.74739583,15.8229167 2,15.0755208 2,14.15625 L2,10.8229167 C2,9.90364583 2.74739583,9.15625 3.66666667,9.15625 L5.875,9.15625 L9.8125,6.0078125 C10.0651042,5.80729167 10.40625,5.76822917 10.6953125,5.90625 Z M3.66666667,14.15625 L6.16666667,14.15625 L6.16666667,10.8229167 L3.66666667,10.8229167 L3.66666667,14.15625 Z M9.5,16.5885417 L9.5,8.390625 L7,10.390625 L7,14.5885417 L9.5,16.5885417 Z M17.6536458,4.23958333 C20.375,6.109375 22,9.19270833 22,12.4895833 C22,15.7864583 20.375,18.8697917 17.6510417,20.7395833 L17.3072917,20.9765625 L16.8359375,20.2890625 L17.1796875,20.0520833 C19.6770833,18.3385417 21.1666667,15.5130208 21.1666667,12.4895833 C21.1666667,9.46614583 19.6770833,6.640625 17.1822917,4.92708333 L16.8385417,4.69010417 L17.3098958,4.00260417 L17.6536458,4.23958333 Z M19.5,12.4895833 C19.5,14.9635417 18.28125,17.2760417 16.2395833,18.6770833 L15.8958333,18.9114583 L15.4244792,18.2239583 L15.7682292,17.9895833 C17.5833333,16.7447917 18.6666667,14.6901042 18.6666667,12.4895833 C18.6666667,10.2890625 17.5833333,8.234375 15.765625,6.98958333 L15.421875,6.75520833 L15.8932292,6.06770833 L16.2369792,6.30208333 C18.28125,7.703125 19.5,10.015625 19.5,12.4895833 Z M17,12.4895833 C17,14.1380208 16.1875,15.6796875 14.8255208,16.6145833 L14.4817708,16.8515625 L14.0104167,16.1640625 L14.3541667,15.9270833 C15.4895833,15.1484375 16.1666667,13.8645833 16.1666667,12.4895833 C16.1666667,11.1145833 15.4895833,9.83072917 14.3567708,9.05208333 L14.0130208,8.81510417 L14.484375,8.12760417 L14.828125,8.36458333 C16.1875,9.29947917 17,10.8411458 17,12.4895833 Z M13.4114583,10.4270833 C14.09375,10.8932292 14.5,11.6640625 14.5026042,12.4869792 C14.5026042,13.3125 14.09375,14.0833333 13.4140625,14.5494792 L13.0703125,14.7838542 L12.5989583,14.0963542 L12.9427083,13.8619792 C13.3958333,13.5494792 13.6666667,13.0364583 13.6666667,12.4869792 C13.6666667,11.9375 13.3958333,11.4244792 12.9427083,11.1119792 L12.5989583,10.8776042 L13.0677083,10.1927083 L13.4114583,10.4270833 Z" id="Combined-Shape" fill="#000000" fill-rule="nonzero"></path>
    </g>
</svg>