<svg xmlns="http://www.w3.org/2000/svg" xmlns:xlink="http://www.w3.org/1999/xlink" width="1800" height="1200" viewBox="0 0 1800 1200"><defs><linearGradient id="a" x1="0.889" y1="0.544" x2="0.123" y2="0.185" gradientUnits="objectBoundingBox"><stop offset="0" stop-color="#fff" stop-opacity="0"/><stop offset="1" stop-color="#e6b656"/></linearGradient><clipPath id="b"><path d="M3510.082,5952.671c0,203.336,465.5,641.547,550.111,225.232,26.147-128.654-88.491-166.662-222.706-393.147C3772.038,5674.313,3510.082,5749.335,3510.082,5952.671Z" transform="translate(-3510.082 -5733.807)" fill="none"/></clipPath><clipPath id="c"><path d="M.04,285.395C3.451,590.036,460.889,691.978,521.87,391.917,548.837,285.354,635.46,158.186,319.279,0,214.415,10.71-3.372-19.246.04,285.395Z" fill="none"/></clipPath><linearGradient id="d" x1="-0.097" y1="0.522" x2="0.93" y2="0.978" gradientUnits="objectBoundingBox"><stop offset="0"/><stop offset="0.676" stop-color="#2f2f2f" stop-opacity="0.192"/><stop offset="1" stop-color="#6c696a" stop-opacity="0"/></linearGradient><linearGradient id="e" x1="1" y1="0.601" x2="0.092" y2="0.019" gradientUnits="objectBoundingBox"><stop offset="0"/><stop offset="0.909" stop-color="#676767" stop-opacity="0.094"/><stop offset="1" stop-color="#6c696a" stop-opacity="0"/></linearGradient><linearGradient id="f" x1="0.896" y1="0.738" x2="0.051" y2="0.267" gradientUnits="objectBoundingBox"><stop offset="0" stop-color="#fff" stop-opacity="0"/><stop offset="1"/></linearGradient><clipPath id="g"><path d="M3510.082,5865.777c0,122.606,280.688,386.838,331.7,135.81,15.766-77.576-53.357-100.493-134.286-237.059C3668.035,5697.934,3510.082,5743.17,3510.082,5865.777Z" transform="translate(-3510.082 -5733.807)" fill="none"/></clipPath><clipPath id="h"><path d="M0,131.97C0,254.577,280.688,518.808,331.7,267.78,347.47,190.2,278.347,167.287,197.418,30.721,157.953-35.874,0,9.363,0,131.97Z" fill="none"/></clipPath><clipPath id="j"><rect width="1800" height="1200"/></clipPath></defs><g id="i" clip-path="url(#j)"><rect width="1800" height="1200" fill="#fff"/><rect width="1200" height="1887" transform="translate(-58 1200) rotate(-90)" fill="#e6b656"/><ellipse cx="542.613" cy="544.08" rx="542.613" ry="544.08" transform="translate(1696.728 100.781) rotate(83)" fill="url(#a)"/><ellipse cx="315.128" cy="316.074" rx="315.128" ry="316.074" transform="matrix(0.966, 0.259, -0.259, 0.966, 1345.283, -299.843)" fill="#cbc9cc"/><g transform="translate(-168.741 142.27)"><g transform="translate(0 0)" clip-path="url(#b)"><g transform="translate(-499.289 -235.946)"><rect width="1.004" height="915.537" transform="translate(1054.073)"/><rect width="1.004" height="915.537" transform="translate(1036.505)"/><rect width="1.004" height="915.537" transform="translate(1018.937)"/><rect width="1.004" height="915.537" transform="translate(1001.369)"/><rect width="1.004" height="915.537" transform="translate(983.801)"/><rect width="1.004" height="915.537" transform="translate(966.233)"/><rect width="1.004" height="915.537" transform="translate(948.665)"/><rect width="1.004" height="915.537" transform="translate(931.097)"/><rect width="1.004" height="915.537" transform="translate(913.53)"/><rect width="1.004" height="915.537" transform="translate(895.962)"/><rect width="1.004" height="915.537" transform="translate(878.394)"/><rect width="1.004" height="915.537" transform="translate(860.826)"/><rect width="1.004" height="915.537" transform="translate(843.258)"/><rect width="1.004" height="915.537" transform="translate(825.69)"/><rect width="1.004" height="915.537" transform="translate(808.122)"/><rect width="1.004" height="915.537" transform="translate(790.554)"/><rect width="1.004" height="915.537" transform="translate(772.987)"/><rect width="1.004" height="915.537" transform="translate(755.419)"/><rect width="1.004" height="915.537" transform="translate(737.851)"/><rect width="1.004" height="915.537" transform="translate(720.283)"/><rect width="1.004" height="915.537" transform="translate(702.715)"/><rect width="1.004" height="915.537" transform="translate(685.147)"/><rect width="1.004" height="915.537" transform="translate(667.579)"/><rect width="1.004" height="915.537" transform="translate(650.011)"/><rect width="1.004" height="915.537" transform="translate(632.444)"/><rect width="1.004" height="915.537" transform="translate(614.876)"/><rect width="1.004" height="915.537" transform="translate(597.308)"/><rect width="1.004" height="915.537" transform="translate(579.74)"/><rect width="1.004" height="915.537" transform="translate(562.172)"/><rect width="1.004" height="915.537" transform="translate(544.604)"/><rect width="1.004" height="915.537" transform="translate(527.036)"/><rect width="1.004" height="915.537" transform="translate(509.468)"/><rect width="1.004" height="915.537" transform="translate(491.901)"/><rect width="1.004" height="915.537" transform="translate(474.333)"/><rect width="1.004" height="915.537" transform="translate(456.765)"/><rect width="1.004" height="915.537" transform="translate(439.197)"/><rect width="1.004" height="915.537" transform="translate(421.629)"/><rect width="1.004" height="915.537" transform="translate(404.061)"/><rect width="1.004" height="915.537" transform="translate(386.493)"/><rect width="1.004" height="915.537" transform="translate(368.925)"/><rect width="1.004" height="915.537" transform="translate(351.358)"/><rect width="1.004" height="915.537" transform="translate(333.79)"/><rect width="1.004" height="915.537" transform="translate(316.222)"/><rect width="1.004" height="915.537" transform="translate(298.654)"/><rect width="1.004" height="915.537" transform="translate(281.086)"/><rect width="1.004" height="915.537" transform="translate(263.518)"/><rect width="1.004" height="915.537" transform="translate(245.95)"/><rect width="1.004" height="915.537" transform="translate(228.382)"/><rect width="1.004" height="915.537" transform="translate(210.815)"/><rect width="1.004" height="915.537" transform="translate(193.247)"/><rect width="1.004" height="915.537" transform="translate(175.679)"/><rect width="1.004" height="915.537" transform="translate(158.111)"/><rect width="1.004" height="915.537" transform="translate(140.543)"/><rect width="1.004" height="915.537" transform="translate(122.975)"/><rect width="1.004" height="915.537" transform="translate(105.407)"/><rect width="1.004" height="915.537" transform="translate(87.839)"/><rect width="1.004" height="915.537" transform="translate(70.271)"/><rect width="1.004" height="915.537" transform="translate(52.704)"/><rect width="1.004" height="915.537" transform="translate(35.136)"/><rect width="1.004" height="915.537" transform="translate(17.568)"/><rect width="1.004" height="915.537"/></g></g></g><g transform="translate(1031.633 689.211)"><g transform="translate(0 0)" clip-path="url(#c)"><g transform="translate(-206.975 -18.538)"><rect width="0.724" height="659.877" transform="translate(759.727 0)"/><rect width="0.724" height="659.877" transform="translate(747.065 0)"/><rect width="0.724" height="659.877" transform="translate(734.403 0)"/><rect width="0.724" height="659.877" transform="translate(721.741 0)"/><rect width="0.724" height="659.877" transform="translate(709.079 0)"/><rect width="0.724" height="659.877" transform="translate(696.417 0)"/><rect width="0.724" height="659.877" transform="translate(683.754 0)"/><rect width="0.724" height="659.877" transform="translate(671.092 0)"/><rect width="0.724" height="659.877" transform="translate(658.43 0)"/><rect width="0.724" height="659.877" transform="translate(645.768 0)"/><rect width="0.724" height="659.877" transform="translate(633.106 0)"/><rect width="0.724" height="659.877" transform="translate(620.444 0)"/><rect width="0.724" height="659.877" transform="translate(607.782 0)"/><rect width="0.724" height="659.877" transform="translate(595.12 0)"/><rect width="0.724" height="659.877" transform="translate(582.457 0)"/><rect width="0.724" height="659.877" transform="translate(569.795 0)"/><rect width="0.724" height="659.877" transform="translate(557.133 0)"/><rect width="0.724" height="659.877" transform="translate(544.471 0)"/><rect width="0.724" height="659.877" transform="translate(531.809 0)"/><rect width="0.724" height="659.877" transform="translate(519.147 0)"/><rect width="0.724" height="659.877" transform="translate(506.485 0)"/><rect width="0.724" height="659.877" transform="translate(493.823 0)"/><rect width="0.724" height="659.877" transform="translate(481.161 0)"/><rect width="0.724" height="659.877" transform="translate(468.498 0)"/><rect width="0.724" height="659.877" transform="translate(455.836 0)"/><rect width="0.724" height="659.877" transform="translate(443.174 0)"/><rect width="0.724" height="659.877" transform="translate(430.512 0)"/><rect width="0.724" height="659.877" transform="translate(417.85 0)"/><rect width="0.724" height="659.877" transform="translate(405.188 0)"/><rect width="0.724" height="659.877" transform="translate(392.526 0)"/><rect width="0.724" height="659.877" transform="translate(379.864 0)"/><rect width="0.724" height="659.877" transform="translate(367.201 0)"/><rect width="0.724" height="659.877" transform="translate(354.539 0)"/><rect width="0.724" height="659.877" transform="translate(341.877 0)"/><rect width="0.724" height="659.877" transform="translate(329.215 0)"/><rect width="0.724" height="659.877" transform="translate(316.553 0)"/><rect width="0.724" height="659.877" transform="translate(303.891 0)"/><rect width="0.724" height="659.877" transform="translate(291.229 0)"/><rect width="0.724" height="659.877" transform="translate(278.567 0)"/><rect width="0.724" height="659.877" transform="translate(265.905 0)"/><rect width="0.724" height="659.877" transform="translate(253.242 0)"/><rect width="0.724" height="659.877" transform="translate(240.58 0)"/><rect width="0.724" height="659.877" transform="translate(227.918 0)"/><rect width="0.724" height="659.877" transform="translate(215.256 0)"/><rect width="0.724" height="659.877" transform="translate(202.594 0)"/><rect width="0.724" height="659.877" transform="translate(189.932 0)"/><rect width="0.724" height="659.877" transform="translate(177.27 0)"/><rect width="0.724" height="659.877" transform="translate(164.608 0)"/><rect width="0.724" height="659.877" transform="translate(151.945 0)"/><rect width="0.724" height="659.877" transform="translate(139.283 0)"/><rect width="0.724" height="659.877" transform="translate(126.621 0)"/><rect width="0.724" height="659.877" transform="translate(113.959 0)"/><rect width="0.724" height="659.877" transform="translate(101.297 0)"/><rect width="0.724" height="659.877" transform="translate(88.635 0)"/><rect width="0.724" height="659.877" transform="translate(75.973 0)"/><rect width="0.724" height="659.877" transform="translate(63.311 0)"/><rect width="0.724" height="659.877" transform="translate(50.648 0)"/><rect width="0.724" height="659.877" transform="translate(37.986 0)"/><rect width="0.724" height="659.877" transform="translate(25.324 0)"/><rect width="0.724" height="659.877" transform="translate(12.662 0)"/><rect width="0.724" height="659.877"/></g></g></g><g transform="translate(-193.345 444.491)"><g transform="translate(0)" opacity="0.896"><path d="M-64.38-4991.529c0,.338,0,.665-.011,1a199.582,199.582,0,0,1-2.885,33.111l-113.813-19-84.492-14.11c-.163-.022-.326-.046-.488-.064a231.423,231.423,0,0,1-64.584-18.353,232.372,232.372,0,0,1-104.163-92.805c-.206-.342-.412-.682-.607-1.02a232.878,232.878,0,0,1-31.793-103.111.02.02,0,0,1,0-.032q-.537-7.958-.542-16.038v-9.76a202.45,202.45,0,0,1,2.613-32.542l115.44,19.042,83.636,13.8v.079h.488a230.423,230.423,0,0,1,62.925,18.344,235.024,235.024,0,0,1,104.326,93.3c.206.337.4.687.607,1.031a233.428,233.428,0,0,1,30.2,85.849q1.383,9.612,1.973,19.462A204.26,204.26,0,0,1-64.38-4991.529Z" transform="translate(467.759 5433.4)"/><path d="M-64.583-5218.553v.377a200.665,200.665,0,0,1-33.951,111.643,235.049,235.049,0,0,0-104.326-93.3,230.683,230.683,0,0,0-62.925-18.347h-.488v-.072l-83.636-13.8-115.44-19.04a200.906,200.906,0,0,1,43.439-95.751,201.294,201.294,0,0,1,155.637-73.4,201.276,201.276,0,0,1,155.637,73.4A200.877,200.877,0,0,1-64.583-5218.553Z" transform="translate(467.962 5420.242)" fill="url(#d)"/><path d="M-67.275-4970.4a200.028,200.028,0,0,1-43.081,93.744,201.484,201.484,0,0,1-155.713,73.29,201.517,201.517,0,0,1-155.713-73.29,199.953,199.953,0,0,1-45.966-126.858c-.011-.336-.011-.661-.011-1a199.916,199.916,0,0,1,32.943-110.22,232.376,232.376,0,0,0,104.163,92.8,231.423,231.423,0,0,0,64.584,18.353c.162.019.325.042.488.063l84.492,14.109Z" transform="translate(467.759 5446.011)" fill="url(#e)"/></g></g><ellipse cx="120.379" cy="120.694" rx="120.379" ry="120.694" transform="translate(1745.6 189.005) rotate(180)" fill="url(#f)"/><g transform="translate(257.975 -117.427)"><g transform="translate(0 0)" clip-path="url(#g)"><g transform="translate(-301.06 -142.27)"><rect width="0.605" height="552.048" transform="translate(635.581)" fill="#fff"/><rect width="0.605" height="552.048" transform="translate(624.988)" fill="#fff"/><rect width="0.605" height="552.048" transform="translate(614.396)" fill="#fff"/><rect width="0.605" height="552.048" transform="translate(603.802)" fill="#fff"/><rect width="0.605" height="552.048" transform="translate(593.209)" fill="#fff"/><rect width="0.605" height="552.048" transform="translate(582.616)" fill="#fff"/><rect width="0.605" height="552.048" transform="translate(572.023)" fill="#fff"/><rect width="0.605" height="552.048" transform="translate(561.43)" fill="#fff"/><rect width="0.605" height="552.048" transform="translate(550.837)" fill="#fff"/><rect width="0.605" height="552.048" transform="translate(540.244)" fill="#fff"/><rect width="0.605" height="552.048" transform="translate(529.651)" fill="#fff"/><rect width="0.605" height="552.048" transform="translate(519.058)" fill="#fff"/><rect width="0.605" height="552.048" transform="translate(508.465)" fill="#fff"/><rect width="0.605" height="552.048" transform="translate(497.872)" fill="#fff"/><rect width="0.605" height="552.048" transform="translate(487.279)" fill="#fff"/><rect width="0.605" height="552.048" transform="translate(476.686)" fill="#fff"/><rect width="0.605" height="552.048" transform="translate(466.093)" fill="#fff"/><rect width="0.605" height="552.048" transform="translate(455.5)" fill="#fff"/><rect width="0.605" height="552.048" transform="translate(444.907)" fill="#fff"/><rect width="0.605" height="552.048" transform="translate(434.314)" fill="#fff"/><rect width="0.605" height="552.048" transform="translate(423.721)" fill="#fff"/><rect width="0.605" height="552.048" transform="translate(413.128)" fill="#fff"/><rect width="0.605" height="552.048" transform="translate(402.535)" fill="#fff"/><rect width="0.605" height="552.048" transform="translate(391.942)" fill="#fff"/><rect width="0.605" height="552.048" transform="translate(381.349)" fill="#fff"/><rect width="0.605" height="552.048" transform="translate(370.756)" fill="#fff"/><rect width="0.605" height="552.048" transform="translate(360.163)" fill="#fff"/><rect width="0.605" height="552.048" transform="translate(349.57)" fill="#fff"/><rect width="0.605" height="552.048" transform="translate(338.977)" fill="#fff"/><rect width="0.605" height="552.048" transform="translate(328.384)" fill="#fff"/><rect width="0.605" height="552.048" transform="translate(317.791)" fill="#fff"/><rect width="0.605" height="552.048" transform="translate(307.198)" fill="#fff"/><rect width="0.605" height="552.048" transform="translate(296.605)" fill="#fff"/><rect width="0.605" height="552.048" transform="translate(286.012)" fill="#fff"/><rect width="0.605" height="552.048" transform="translate(275.419)" fill="#fff"/><rect width="0.605" height="552.048" transform="translate(264.826)" fill="#fff"/><rect width="0.605" height="552.048" transform="translate(254.233)" fill="#fff"/><rect width="0.605" height="552.048" transform="translate(243.64)" fill="#fff"/><rect width="0.605" height="552.048" transform="translate(233.047)" fill="#fff"/><rect width="0.605" height="552.048" transform="translate(222.454)" fill="#fff"/><rect width="0.605" height="552.048" transform="translate(211.861)" fill="#fff"/><rect width="0.605" height="552.048" transform="translate(201.267)" fill="#fff"/><rect width="0.605" height="552.048" transform="translate(190.674)" fill="#fff"/><rect width="0.605" height="552.048" transform="translate(180.081)" fill="#fff"/><rect width="0.605" height="552.048" transform="translate(169.488)" fill="#fff"/><rect width="0.605" height="552.048" transform="translate(158.895)" fill="#fff"/><rect width="0.605" height="552.048" transform="translate(148.302)" fill="#fff"/><rect width="0.605" height="552.048" transform="translate(137.709)" fill="#fff"/><rect width="0.605" height="552.048" transform="translate(127.116)" fill="#fff"/><rect width="0.605" height="552.048" transform="translate(116.523)" fill="#fff"/><rect width="0.605" height="552.048" transform="translate(105.93)" fill="#fff"/><rect width="0.605" height="552.048" transform="translate(95.337)" fill="#fff"/><rect width="0.605" height="552.048" transform="translate(84.744)" fill="#fff"/><rect width="0.605" height="552.048" transform="translate(74.151)" fill="#fff"/><rect width="0.605" height="552.048" transform="translate(63.558)" fill="#fff"/><rect width="0.605" height="552.048" transform="translate(52.965)" fill="#fff"/><rect width="0.605" height="552.048" transform="translate(42.372)" fill="#fff"/><rect width="0.605" height="552.048" transform="translate(31.779)" fill="#fff"/><rect width="0.605" height="552.048" transform="translate(21.186)" fill="#fff"/><rect width="0.605" height="552.048" transform="translate(10.593)" fill="#fff"/><rect width="0.605" height="552.048" fill="#fff"/></g></g></g><g transform="translate(611.118 958.628) rotate(90)"><g transform="translate(0 0)" clip-path="url(#h)"><g transform="translate(-301.06 -142.27)"><rect width="0.605" height="552.048" transform="translate(635.581)" fill="#fff"/><rect width="0.605" height="552.048" transform="translate(624.988)" fill="#fff"/><rect width="0.605" height="552.048" transform="translate(614.396)" fill="#fff"/><rect width="0.605" height="552.048" transform="translate(603.802)" fill="#fff"/><rect width="0.605" height="552.048" transform="translate(593.209)" fill="#fff"/><rect width="0.605" height="552.048" transform="translate(582.616)" fill="#fff"/><rect width="0.605" height="552.048" transform="translate(572.023)" fill="#fff"/><rect width="0.605" height="552.048" transform="translate(561.43)" fill="#fff"/><rect width="0.605" height="552.048" transform="translate(550.837)" fill="#fff"/><rect width="0.605" height="552.048" transform="translate(540.244)" fill="#fff"/><rect width="0.605" height="552.048" transform="translate(529.651)" fill="#fff"/><rect width="0.605" height="552.048" transform="translate(519.058)" fill="#fff"/><rect width="0.605" height="552.048" transform="translate(508.465)" fill="#fff"/><rect width="0.605" height="552.048" transform="translate(497.872)" fill="#fff"/><rect width="0.605" height="552.048" transform="translate(487.279)" fill="#fff"/><rect width="0.605" height="552.048" transform="translate(476.686)" fill="#fff"/><rect width="0.605" height="552.048" transform="translate(466.093)" fill="#fff"/><rect width="0.605" height="552.048" transform="translate(455.5)" fill="#fff"/><rect width="0.605" height="552.048" transform="translate(444.907)" fill="#fff"/><rect width="0.605" height="552.048" transform="translate(434.314)" fill="#fff"/><rect width="0.605" height="552.048" transform="translate(423.721)" fill="#fff"/><rect width="0.605" height="552.048" transform="translate(413.128)" fill="#fff"/><rect width="0.605" height="552.048" transform="translate(402.535)" fill="#fff"/><rect width="0.605" height="552.048" transform="translate(391.942)" fill="#fff"/><rect width="0.605" height="552.048" transform="translate(381.349)" fill="#fff"/><rect width="0.605" height="552.048" transform="translate(370.756)" fill="#fff"/><rect width="0.605" height="552.048" transform="translate(360.163)" fill="#fff"/><rect width="0.605" height="552.048" transform="translate(349.57)" fill="#fff"/><rect width="0.605" height="552.048" transform="translate(338.977)" fill="#fff"/><rect width="0.605" height="552.048" transform="translate(328.384)" fill="#fff"/><rect width="0.605" height="552.048" transform="translate(317.791)" fill="#fff"/><rect width="0.605" height="552.048" transform="translate(307.198)" fill="#fff"/><rect width="0.605" height="552.048" transform="translate(296.605)" fill="#fff"/><rect width="0.605" height="552.048" transform="translate(286.012)" fill="#fff"/><rect width="0.605" height="552.048" transform="translate(275.419)" fill="#fff"/><rect width="0.605" height="552.048" transform="translate(264.826)" fill="#fff"/><rect width="0.605" height="552.048" transform="translate(254.233)" fill="#fff"/><rect width="0.605" height="552.048" transform="translate(243.64)" fill="#fff"/><rect width="0.605" height="552.048" transform="translate(233.047)" fill="#fff"/><rect width="0.605" height="552.048" transform="translate(222.454)" fill="#fff"/><rect width="0.605" height="552.048" transform="translate(211.861)" fill="#fff"/><rect width="0.605" height="552.048" transform="translate(201.267)" fill="#fff"/><rect width="0.605" height="552.048" transform="translate(190.674)" fill="#fff"/><rect width="0.605" height="552.048" transform="translate(180.081)" fill="#fff"/><rect width="0.605" height="552.048" transform="translate(169.488)" fill="#fff"/><rect width="0.605" height="552.048" transform="translate(158.895)" fill="#fff"/><rect width="0.605" height="552.048" transform="translate(148.302)" fill="#fff"/><rect width="0.605" height="552.048" transform="translate(137.709)" fill="#fff"/><rect width="0.605" height="552.048" transform="translate(127.116)" fill="#fff"/><rect width="0.605" height="552.048" transform="translate(116.523)" fill="#fff"/><rect width="0.605" height="552.048" transform="translate(105.93)" fill="#fff"/><rect width="0.605" height="552.048" transform="translate(95.337)" fill="#fff"/><rect width="0.605" height="552.048" transform="translate(84.744)" fill="#fff"/><rect width="0.605" height="552.048" transform="translate(74.151)" fill="#fff"/><rect width="0.605" height="552.048" transform="translate(63.558)" fill="#fff"/><rect width="0.605" height="552.048" transform="translate(52.965)" fill="#fff"/><rect width="0.605" height="552.048" transform="translate(42.372)" fill="#fff"/><rect width="0.605" height="552.048" transform="translate(31.779)" fill="#fff"/><rect width="0.605" height="552.048" transform="translate(21.186)" fill="#fff"/><rect width="0.605" height="552.048" transform="translate(10.593)" fill="#fff"/><rect width="0.605" height="552.048" fill="#fff"/></g></g></g><ellipse cx="82.045" cy="82.88" rx="82.045" ry="82.88" transform="matrix(-0.259, 0.966, -0.966, -0.259, 1409.237, 191.079)" fill="none" stroke="#fff" stroke-width="1"/><rect width="354.204" height="133.614" transform="translate(1737.291 496.935) rotate(-90)" fill="#181818"/></g></svg>