<svg xmlns="http://www.w3.org/2000/svg" xmlns:xlink="http://www.w3.org/1999/xlink" width="243.523" height="48.066" viewBox="0 0 243.523 48.066"><defs><linearGradient id="a" y1="0.754" x2="0.939" y2="1.05" gradientUnits="objectBoundingBox"><stop offset="0" stop-color="#fff" stop-opacity="0.988"/><stop offset="0.618" stop-color="#fff" stop-opacity="0.522"/><stop offset="1" stop-color="#fff" stop-opacity="0"/></linearGradient><linearGradient id="b" x1="1" y1="0.649" x2="0" gradientUnits="objectBoundingBox"><stop offset="0" stop-color="#fff"/><stop offset="0.912" stop-color="#fff" stop-opacity="0.094"/><stop offset="1" stop-color="#6c696a" stop-opacity="0"/></linearGradient></defs><g transform="translate(-554.566 -3242.001)"><g transform="translate(554.566 3242.001)"><g transform="translate(0 0)"><g transform="translate(0)"><path d="M-437.588-5243.855c0,.025,0,.05,0,.075a14.927,14.927,0,0,1-.216,2.477l-8.513-1.421-6.32-1.055-.037,0a17.312,17.312,0,0,1-4.831-1.373,17.381,17.381,0,0,1-7.791-6.942l-.045-.076a17.417,17.417,0,0,1-2.378-7.712s0,0,0,0q-.04-.595-.041-1.2v-.73a15.144,15.144,0,0,1,.2-2.434l8.634,1.424,6.256,1.033v.005h.037a17.23,17.23,0,0,1,4.706,1.373,17.575,17.575,0,0,1,7.8,6.978c.015.025.03.051.045.077a17.458,17.458,0,0,1,2.259,6.421q.1.719.148,1.455A15.282,15.282,0,0,1-437.588-5243.855Z" transform="translate(467.759 5276.905)" fill="#fff" opacity="0.948"/><path d="M-435.374-5405.159v.028a15.01,15.01,0,0,1-2.539,8.351,17.575,17.575,0,0,0-7.8-6.978,17.264,17.264,0,0,0-4.707-1.373h-.036v-.005l-6.256-1.033-8.634-1.424a15.025,15.025,0,0,1,3.249-7.162,15.056,15.056,0,0,1,11.641-5.49,15.055,15.055,0,0,1,11.641,5.49A15.023,15.023,0,0,1-435.374-5405.159Z" transform="translate(465.545 5420.244)" fill="url(#a)"/><path d="M-437.8-5103.935a14.963,14.963,0,0,1-3.222,7.012,15.071,15.071,0,0,1-11.647,5.481,15.073,15.073,0,0,1-11.647-5.481,14.955,14.955,0,0,1-3.438-9.488c0-.025,0-.05,0-.075a14.951,14.951,0,0,1,2.464-8.244,17.385,17.385,0,0,0,7.791,6.941,17.3,17.3,0,0,0,4.831,1.372l.037.005,6.32,1.055Z" transform="translate(467.759 5139.508)" fill="url(#b)"/></g></g></g><g transform="translate(600.288 3256.003)"><g transform="translate(0)"><path d="M-342.713,1524.518a29.41,29.41,0,0,0-3.147-1.282,21.85,21.85,0,0,1-2.207-.825,4.016,4.016,0,0,1-1.339-.954,2.106,2.106,0,0,1-.527-1.467,2.105,2.105,0,0,1,.684-1.694,2.668,2.668,0,0,1,1.794-.584,2.831,2.831,0,0,1,2.022.7,3.018,3.018,0,0,1,.911,1.78h4.329a5.8,5.8,0,0,0-2.15-4.1,7.826,7.826,0,0,0-5.083-1.538,7.667,7.667,0,0,0-4.941,1.5,4.955,4.955,0,0,0-1.865,4.087,5.1,5.1,0,0,0,.84,3.047,5.679,5.679,0,0,0,2.036,1.78,22.384,22.384,0,0,0,3.076,1.239q1.452.484,2.278.855a3.96,3.96,0,0,1,1.367.982,2.26,2.26,0,0,1,.541,1.552,2.332,2.332,0,0,1-.669,1.723,2.6,2.6,0,0,1-1.922.669,3.081,3.081,0,0,1-2.236-.812,3.262,3.262,0,0,1-.982-2.036h-4.272a6.033,6.033,0,0,0,1.153,3.19,6.45,6.45,0,0,0,2.691,2.093,9.53,9.53,0,0,0,3.816.726,7.9,7.9,0,0,0,3.674-.783,5.523,5.523,0,0,0,2.278-2.079,5.451,5.451,0,0,0,.769-2.833,5.273,5.273,0,0,0-.854-3.133A5.552,5.552,0,0,0-342.713,1524.518Z" transform="translate(354.233 -1514.551)" fill="#fff"/><path d="M-293.786,1532.354a2.223,2.223,0,0,1-.456-1.595v-6.892h3.531v-3.389h-3.531v-3.9h-4.016v3.9h-2.193v3.389h2.193v6.835q0,2.99,1.41,4.272a5.831,5.831,0,0,0,4.058,1.281h2.107v-3.446h-1.566A2.126,2.126,0,0,1-293.786,1532.354Z" transform="translate(319.36 -1515.865)" fill="#fff"/><path d="M-246.424,1528.074a8.749,8.749,0,0,0-4.143-.969,8.75,8.75,0,0,0-4.144.969,7.085,7.085,0,0,0-2.89,2.8,8.521,8.521,0,0,0-1.054,4.315,8.439,8.439,0,0,0,1.054,4.3,7.2,7.2,0,0,0,2.89,2.805,8.646,8.646,0,0,0,4.144.983,8.645,8.645,0,0,0,4.143-.983,7.207,7.207,0,0,0,2.89-2.805,8.443,8.443,0,0,0,1.054-4.3,8.524,8.524,0,0,0-1.054-4.315A7.087,7.087,0,0,0-246.424,1528.074Zm-1.3,10.551a3.853,3.853,0,0,1-2.848,1.182,3.85,3.85,0,0,1-2.848-1.182,4.68,4.68,0,0,1-1.168-3.432,4.681,4.681,0,0,1,1.168-3.432,3.851,3.851,0,0,1,2.848-1.182,3.854,3.854,0,0,1,2.848,1.182,4.684,4.684,0,0,1,1.168,3.432A4.683,4.683,0,0,1-247.719,1538.626Z" transform="translate(292.259 -1522.692)" fill="#fff"/><path d="M-192.431,1530.271v-3.019h-4.016v15.777h4.016v-7.6q0-4.1,4.414-4.1h1.168v-4.3a6.2,6.2,0,0,0-3.247.869A6.6,6.6,0,0,0-192.431,1530.271Z" transform="translate(251.923 -1522.639)" fill="#fff"/><path d="M-149.983,1538.381l-4.3-10.708h-4.471l6.636,15.322-3.56,7.974h4.443l9.654-23.3H-146Z" transform="translate(227.483 -1523.06)" fill="#fff"/><path d="M-92.931,1530.552a3.586,3.586,0,0,1,2.307.726,3.277,3.277,0,0,1,1.168,1.979h4.243a7.22,7.22,0,0,0-2.549-4.5,7.811,7.811,0,0,0-5.084-1.652,8.5,8.5,0,0,0-4.1.969,6.794,6.794,0,0,0-2.791,2.8,8.91,8.91,0,0,0-1,4.315,8.824,8.824,0,0,0,1,4.3,6.906,6.906,0,0,0,2.791,2.805,8.4,8.4,0,0,0,4.1.983,7.811,7.811,0,0,0,5.084-1.652,7.217,7.217,0,0,0,2.549-4.5h-4.243a3.274,3.274,0,0,1-1.168,1.979,3.587,3.587,0,0,1-2.307.726,3.44,3.44,0,0,1-2.663-1.182,5,5,0,0,1-1.068-3.46,5,5,0,0,1,1.068-3.46A3.441,3.441,0,0,1-92.931,1530.552Z" transform="translate(189.862 -1522.692)" fill="#fff"/><path d="M-30.427,1528.074a8.748,8.748,0,0,0-4.143-.969,8.748,8.748,0,0,0-4.143.969,7.086,7.086,0,0,0-2.891,2.8,8.524,8.524,0,0,0-1.054,4.315,8.442,8.442,0,0,0,1.054,4.3,7.206,7.206,0,0,0,2.891,2.805,8.644,8.644,0,0,0,4.143.983,8.644,8.644,0,0,0,4.143-.983,7.206,7.206,0,0,0,2.891-2.805,8.446,8.446,0,0,0,1.054-4.3,8.528,8.528,0,0,0-1.054-4.315A7.086,7.086,0,0,0-30.427,1528.074Zm-1.3,10.551a3.852,3.852,0,0,1-2.848,1.182,3.85,3.85,0,0,1-2.848-1.182,4.68,4.68,0,0,1-1.168-3.432,4.681,4.681,0,0,1,1.168-3.432,3.851,3.851,0,0,1,2.848-1.182,3.853,3.853,0,0,1,2.848,1.182,4.682,4.682,0,0,1,1.168,3.432A4.682,4.682,0,0,1-31.722,1538.626Z" transform="translate(152.205 -1522.692)" fill="#fff"/><path d="M32.565,1528.074a6.778,6.778,0,0,0-3.588-.969,5.993,5.993,0,0,0-3.4.94,5.137,5.137,0,0,0-2.008,2.535v-3.275H19.55v23.3h4.016v-10.822a5.216,5.216,0,0,0,2.008,2.549,5.923,5.923,0,0,0,3.4.954,6.777,6.777,0,0,0,3.588-.968,6.539,6.539,0,0,0,2.492-2.805,10.823,10.823,0,0,0,0-8.629A6.54,6.54,0,0,0,32.565,1528.074Zm-1.823,10.466a3.951,3.951,0,0,1-3.019,1.211,3.971,3.971,0,0,1-3-1.239,5.288,5.288,0,0,1,0-6.664,3.972,3.972,0,0,1,3-1.239,3.929,3.929,0,0,1,3.019,1.224,4.743,4.743,0,0,1,1.139,3.361A4.689,4.689,0,0,1,30.742,1538.54Z" transform="translate(111.869 -1522.692)" fill="#fff"/><path d="M85.263,1532.354a2.221,2.221,0,0,1-.456-1.595v-6.892h3.531v-3.389H84.807v-3.9H80.792v3.9H78.6v3.389h2.193v6.835q0,2.99,1.41,4.272a5.831,5.831,0,0,0,4.058,1.281h2.107v-3.446H86.8A2.126,2.126,0,0,1,85.263,1532.354Z" transform="translate(73.581 -1515.865)" fill="#fff"/><path d="M132.37,1528.074a8.313,8.313,0,0,0-4.087-.969,8.5,8.5,0,0,0-4.1.969,6.8,6.8,0,0,0-2.791,2.8,9.809,9.809,0,0,0,0,8.615,6.907,6.907,0,0,0,2.791,2.805,9.021,9.021,0,0,0,7.675.242,6.987,6.987,0,0,0,2.634-2.05,6.786,6.786,0,0,0,1.339-2.962h-4.243a3.03,3.03,0,0,1-1.182,1.851,3.8,3.8,0,0,1-2.321.684,3.665,3.665,0,0,1-2.62-1,4.348,4.348,0,0,1-1.139-3.1h11.563a7.6,7.6,0,0,0,.142-1.367,7.729,7.729,0,0,0-.954-3.859A6.829,6.829,0,0,0,132.37,1528.074Zm-4.087,2.193a3.857,3.857,0,0,1,2.691,1,3.338,3.338,0,0,1,1.014,2.489h-7.622a3.863,3.863,0,0,1,1.183-2.489A3.945,3.945,0,0,1,128.283,1530.267Z" transform="translate(46.48 -1522.692)" fill="#fff"/><path d="M187.413,1527.894a6.6,6.6,0,0,0-2.335,2.378v-3.019h-4.016v15.777h4.016v-7.6q0-4.1,4.414-4.1h1.168v-4.3A6.2,6.2,0,0,0,187.413,1527.894Z" transform="translate(7.143 -1522.639)" fill="#fff"/></g></g></g></svg>