<svg xmlns="http://www.w3.org/2000/svg" xmlns:xlink="http://www.w3.org/1999/xlink" width="1800" height="1200" viewBox="0 0 1800 1200"><defs><linearGradient id="a" y1="0.754" x2="0.939" y2="1.05" gradientUnits="objectBoundingBox"><stop offset="0" stop-color="#fff" stop-opacity="0.988"/><stop offset="0.618" stop-color="#fff" stop-opacity="0.522"/><stop offset="1" stop-color="#fff" stop-opacity="0"/></linearGradient><linearGradient id="b" x1="1" y1="0.649" x2="0" gradientUnits="objectBoundingBox"><stop offset="0" stop-color="#fff"/><stop offset="0.912" stop-color="#fff" stop-opacity="0.094"/><stop offset="1" stop-color="#6c696a" stop-opacity="0"/></linearGradient><linearGradient id="c" x1="0.889" y1="0.544" x2="0.123" y2="0.185" gradientUnits="objectBoundingBox"><stop offset="0" stop-color="#fff" stop-opacity="0"/><stop offset="1" stop-color="#e6b656"/></linearGradient><linearGradient id="d" x1="0.889" y1="0.544" x2="0.123" y2="0.185" gradientUnits="objectBoundingBox"><stop offset="0" stop-color="#fff" stop-opacity="0"/><stop offset="1" stop-color="#5b47ff"/></linearGradient><clipPath id="f"><path d="M3510.082,5888.141c0,143.386,328.257,452.4,387.918,158.827,18.438-90.723-62.4-117.523-157.044-277.233C3694.8,5691.854,3510.082,5744.757,3510.082,5888.141Z" transform="translate(-3510.082 -5733.807)" fill="none"/></clipPath><clipPath id="g"><path d="M0,154.335c0,143.385,328.256,452.4,387.918,158.826,18.438-90.723-62.4-117.524-157.044-277.233C184.722-41.953,0,10.95,0,154.335Z" fill="none"/></clipPath><clipPath id="i"><rect width="1800" height="1200"/></clipPath></defs><g id="h" clip-path="url(#i)"><rect width="1800" height="1200" fill="#fff"/><g transform="translate(-378.267 -132.094)"><g transform="translate(-538.014 -92.328)"><rect width="1229.122" height="2122.313" transform="translate(774.775 1445.135) rotate(-90)"/><g transform="translate(1555.774 559.787)"><g transform="translate(104.031 20.167)"><g transform="translate(0)"><path d="M-159.534-5055.862c0,.259,0,.5-.008.764a152.509,152.509,0,0,1-2.2,25.3l-86.966-14.521-64.561-10.781-.373-.051A176.783,176.783,0,0,1-363-5069.171a177.544,177.544,0,0,1-79.592-70.912c-.157-.262-.315-.524-.464-.782a177.927,177.927,0,0,1-24.293-78.786.015.015,0,0,1,0-.024q-.41-6.081-.414-12.256v-7.458a154.665,154.665,0,0,1,2-24.864l88.209,14.55,63.907,10.547v.06h.373a176.094,176.094,0,0,1,48.081,14.019,179.568,179.568,0,0,1,79.716,71.29c.157.257.307.522.464.788a178.344,178.344,0,0,1,23.075,65.6q1.056,7.348,1.508,14.87A156.108,156.108,0,0,1-159.534-5055.862Z" transform="translate(467.759 5393.5)" fill="#fff" opacity="0.902"/><path d="M-159.121-5266.132v.289a153.341,153.341,0,0,1-25.942,85.308,179.6,179.6,0,0,0-79.716-71.289,176.232,176.232,0,0,0-48.081-14.019h-.373v-.056l-63.907-10.549-88.209-14.547a153.524,153.524,0,0,1,33.192-73.166,153.812,153.812,0,0,1,118.923-56.083A153.8,153.8,0,0,1-194.31-5364.16,153.5,153.5,0,0,1-159.121-5266.132Z" transform="translate(467.346 5420.244)" fill="url(#a)"/><path d="M-161.747-5004.443a152.842,152.842,0,0,1-32.918,71.63,153.957,153.957,0,0,1-118.981,56,153.983,153.983,0,0,1-118.981-56,152.788,152.788,0,0,1-35.123-96.933c-.008-.259-.008-.5-.008-.764a152.75,152.75,0,0,1,25.172-84.22A177.57,177.57,0,0,0-363-5043.818a176.768,176.768,0,0,0,49.349,14.022c.124.015.249.032.373.05l64.561,10.781Z" transform="translate(467.759 5367.865)" fill="url(#b)"/></g></g><g transform="translate(0 0)"><rect width="526" height="526" transform="translate(-0.494 -0.364)" fill="none"/></g></g><g transform="translate(2663.296 1349.129) rotate(-151)" opacity="0.421"><path d="M6.357,0,396.173,66.113c215.285,36.51,358.341,251.7,319.518,480.623L325.872,480.625C110.576,444.11-32.471,228.939,6.357,0" transform="translate(0 0)" fill="#e6b656" fill-rule="evenodd"/></g><g transform="translate(204.417 1445.422) rotate(-99)" opacity="0.421"><path d="M11.5,0l705.47,119.649c389.612,66.075,648.508,455.515,578.248,869.809L589.749,869.813C200.116,803.73-58.764,414.323,11.5,0" transform="translate(0 0)" fill="#e6b656" fill-rule="evenodd"/></g><ellipse cx="229.246" cy="229.817" rx="229.246" ry="229.817" transform="matrix(0.966, 0.259, -0.259, 0.966, 2516.025, 561.528)" fill="url(#c)"/><ellipse cx="229.246" cy="229.817" rx="229.246" ry="229.817" transform="matrix(0.966, 0.259, -0.259, 0.966, 1548.735, 601.545)" fill="url(#d)"/><ellipse cx="414.878" cy="415.913" rx="414.878" ry="415.913" transform="matrix(0.391, 0.921, -0.921, 0.391, 1155.645, 260.58)" fill="url(#c)"/><g transform="translate(1089.297 770.752)"><g transform="translate(0 0)" clip-path="url(#f)"><g transform="translate(-352.08 -166.38)"><rect width="0.708" height="645.604" transform="translate(743.294)" fill="#fff"/><rect width="0.708" height="645.604" transform="translate(730.905)" fill="#fff"/><rect width="0.708" height="645.604" transform="translate(718.517)" fill="#fff"/><rect width="0.708" height="645.604" transform="translate(706.129)" fill="#fff"/><rect width="0.708" height="645.604" transform="translate(693.741)" fill="#fff"/><rect width="0.708" height="645.604" transform="translate(681.352)" fill="#fff"/><rect width="0.708" height="645.604" transform="translate(668.964)" fill="#fff"/><rect width="0.708" height="645.604" transform="translate(656.576)" fill="#fff"/><rect width="0.708" height="645.604" transform="translate(644.188)" fill="#fff"/><rect width="0.708" height="645.604" transform="translate(631.799)" fill="#fff"/><rect width="0.708" height="645.604" transform="translate(619.411)" fill="#fff"/><rect width="0.708" height="645.604" transform="translate(607.023)" fill="#fff"/><rect width="0.708" height="645.604" transform="translate(594.635)" fill="#fff"/><rect width="0.708" height="645.604" transform="translate(582.247)" fill="#fff"/><rect width="0.708" height="645.604" transform="translate(569.858)" fill="#fff"/><rect width="0.708" height="645.604" transform="translate(557.47)" fill="#fff"/><rect width="0.708" height="645.604" transform="translate(545.082)" fill="#fff"/><rect width="0.708" height="645.604" transform="translate(532.694)" fill="#fff"/><rect width="0.708" height="645.604" transform="translate(520.306)" fill="#fff"/><rect width="0.708" height="645.604" transform="translate(507.917)" fill="#fff"/><rect width="0.708" height="645.604" transform="translate(495.529)" fill="#fff"/><rect width="0.708" height="645.604" transform="translate(483.141)" fill="#fff"/><rect width="0.708" height="645.604" transform="translate(470.753)" fill="#fff"/><rect width="0.708" height="645.604" transform="translate(458.364)" fill="#fff"/><rect width="0.708" height="645.604" transform="translate(445.976)" fill="#fff"/><rect width="0.708" height="645.604" transform="translate(433.588)" fill="#fff"/><rect width="0.708" height="645.604" transform="translate(421.2)" fill="#fff"/><rect width="0.708" height="645.604" transform="translate(408.811)" fill="#fff"/><rect width="0.708" height="645.604" transform="translate(396.423)" fill="#fff"/><rect width="0.708" height="645.604" transform="translate(384.035)" fill="#fff"/><rect width="0.708" height="645.604" transform="translate(371.647)" fill="#fff"/><rect width="0.708" height="645.604" transform="translate(359.259)" fill="#fff"/><rect width="0.708" height="645.604" transform="translate(346.87)" fill="#fff"/><rect width="0.708" height="645.604" transform="translate(334.482)" fill="#fff"/><rect width="0.708" height="645.604" transform="translate(322.094)" fill="#fff"/><rect width="0.708" height="645.604" transform="translate(309.706)" fill="#fff"/><rect width="0.708" height="645.604" transform="translate(297.317)" fill="#fff"/><rect width="0.708" height="645.604" transform="translate(284.929)" fill="#fff"/><rect width="0.708" height="645.604" transform="translate(272.541)" fill="#fff"/><rect width="0.708" height="645.604" transform="translate(260.153)" fill="#fff"/><rect width="0.708" height="645.604" transform="translate(247.765)" fill="#fff"/><rect width="0.708" height="645.604" transform="translate(235.376)" fill="#fff"/><rect width="0.708" height="645.604" transform="translate(222.988)" fill="#fff"/><rect width="0.708" height="645.604" transform="translate(210.6)" fill="#fff"/><rect width="0.708" height="645.604" transform="translate(198.212)" fill="#fff"/><rect width="0.708" height="645.604" transform="translate(185.823)" fill="#fff"/><rect width="0.708" height="645.604" transform="translate(173.435)" fill="#fff"/><rect width="0.708" height="645.604" transform="translate(161.047)" fill="#fff"/><rect width="0.708" height="645.604" transform="translate(148.659)" fill="#fff"/><rect width="0.708" height="645.604" transform="translate(136.27)" fill="#fff"/><rect width="0.708" height="645.604" transform="translate(123.882)" fill="#fff"/><rect width="0.708" height="645.604" transform="translate(111.494)" fill="#fff"/><rect width="0.708" height="645.604" transform="translate(99.106)" fill="#fff"/><rect width="0.708" height="645.604" transform="translate(86.718)" fill="#fff"/><rect width="0.708" height="645.604" transform="translate(74.329)" fill="#fff"/><rect width="0.708" height="645.604" transform="translate(61.941)" fill="#fff"/><rect width="0.708" height="645.604" transform="translate(49.553)" fill="#fff"/><rect width="0.708" height="645.604" transform="translate(37.165)" fill="#fff"/><rect width="0.708" height="645.604" transform="translate(24.776)" fill="#fff"/><rect width="0.708" height="645.604" transform="translate(12.388)" fill="#fff"/><rect width="0.708" height="645.604" fill="#fff"/></g></g></g><g transform="translate(2757.708 376.995) rotate(90)"><g transform="translate(0 0)" clip-path="url(#g)"><g transform="translate(-352.08 -166.38)"><rect width="0.708" height="645.604" transform="translate(743.293)" fill="#fff"/><rect width="0.708" height="645.604" transform="translate(730.905)" fill="#fff"/><rect width="0.708" height="645.604" transform="translate(718.517)" fill="#fff"/><rect width="0.708" height="645.604" transform="translate(706.129)" fill="#fff"/><rect width="0.708" height="645.604" transform="translate(693.741)" fill="#fff"/><rect width="0.708" height="645.604" transform="translate(681.352)" fill="#fff"/><rect width="0.708" height="645.604" transform="translate(668.964)" fill="#fff"/><rect width="0.708" height="645.604" transform="translate(656.576)" fill="#fff"/><rect width="0.708" height="645.604" transform="translate(644.188)" fill="#fff"/><rect width="0.708" height="645.604" transform="translate(631.799)" fill="#fff"/><rect width="0.708" height="645.604" transform="translate(619.411)" fill="#fff"/><rect width="0.708" height="645.604" transform="translate(607.023)" fill="#fff"/><rect width="0.708" height="645.604" transform="translate(594.635)" fill="#fff"/><rect width="0.708" height="645.604" transform="translate(582.247)" fill="#fff"/><rect width="0.708" height="645.604" transform="translate(569.858)" fill="#fff"/><rect width="0.708" height="645.604" transform="translate(557.47)" fill="#fff"/><rect width="0.708" height="645.604" transform="translate(545.082)" fill="#fff"/><rect width="0.708" height="645.604" transform="translate(532.694)" fill="#fff"/><rect width="0.708" height="645.604" transform="translate(520.305)" fill="#fff"/><rect width="0.708" height="645.604" transform="translate(507.917)" fill="#fff"/><rect width="0.708" height="645.604" transform="translate(495.529)" fill="#fff"/><rect width="0.708" height="645.604" transform="translate(483.141)" fill="#fff"/><rect width="0.708" height="645.604" transform="translate(470.753)" fill="#fff"/><rect width="0.708" height="645.604" transform="translate(458.364)" fill="#fff"/><rect width="0.708" height="645.604" transform="translate(445.976)" fill="#fff"/><rect width="0.708" height="645.604" transform="translate(433.588)" fill="#fff"/><rect width="0.708" height="645.604" transform="translate(421.2)" fill="#fff"/><rect width="0.708" height="645.604" transform="translate(408.811)" fill="#fff"/><rect width="0.708" height="645.604" transform="translate(396.423)" fill="#fff"/><rect width="0.708" height="645.604" transform="translate(384.035)" fill="#fff"/><rect width="0.708" height="645.604" transform="translate(371.647)" fill="#fff"/><rect width="0.708" height="645.604" transform="translate(359.259)" fill="#fff"/><rect width="0.708" height="645.604" transform="translate(346.87)" fill="#fff"/><rect width="0.708" height="645.604" transform="translate(334.482)" fill="#fff"/><rect width="0.708" height="645.604" transform="translate(322.094)" fill="#fff"/><rect width="0.708" height="645.604" transform="translate(309.706)" fill="#fff"/><rect width="0.708" height="645.604" transform="translate(297.317)" fill="#fff"/><rect width="0.708" height="645.604" transform="translate(284.929)" fill="#fff"/><rect width="0.708" height="645.604" transform="translate(272.541)" fill="#fff"/><rect width="0.708" height="645.604" transform="translate(260.153)" fill="#fff"/><rect width="0.708" height="645.604" transform="translate(247.765)" fill="#fff"/><rect width="0.708" height="645.604" transform="translate(235.376)" fill="#fff"/><rect width="0.708" height="645.604" transform="translate(222.988)" fill="#fff"/><rect width="0.708" height="645.604" transform="translate(210.6)" fill="#fff"/><rect width="0.708" height="645.604" transform="translate(198.212)" fill="#fff"/><rect width="0.708" height="645.604" transform="translate(185.823)" fill="#fff"/><rect width="0.708" height="645.604" transform="translate(173.435)" fill="#fff"/><rect width="0.708" height="645.604" transform="translate(161.047)" fill="#fff"/><rect width="0.708" height="645.604" transform="translate(148.659)" fill="#fff"/><rect width="0.708" height="645.604" transform="translate(136.27)" fill="#fff"/><rect width="0.708" height="645.604" transform="translate(123.882)" fill="#fff"/><rect width="0.708" height="645.604" transform="translate(111.494)" fill="#fff"/><rect width="0.708" height="645.604" transform="translate(99.106)" fill="#fff"/><rect width="0.708" height="645.604" transform="translate(86.718)" fill="#fff"/><rect width="0.708" height="645.604" transform="translate(74.329)" fill="#fff"/><rect width="0.708" height="645.604" transform="translate(61.941)" fill="#fff"/><rect width="0.708" height="645.604" transform="translate(49.553)" fill="#fff"/><rect width="0.708" height="645.604" transform="translate(37.165)" fill="#fff"/><rect width="0.708" height="645.604" transform="translate(24.776)" fill="#fff"/><rect width="0.708" height="645.604" transform="translate(12.388)" fill="#fff"/><rect width="0.708" height="645.604" fill="#fff"/></g></g></g></g></g></g></svg>