<svg xmlns="http://www.w3.org/2000/svg" width="1920" height="1068"><defs><linearGradient id="b" x1=".889" y1=".544" x2=".123" y2=".185" gradientUnits="objectBoundingBox"><stop offset="0" stop-color="#fff" stop-opacity="0"/><stop offset="1" stop-color="#e6b656"/></linearGradient><linearGradient id="e" x1="-.097" y1=".522" x2=".93" y2=".978" gradientUnits="objectBoundingBox"><stop offset="0"/><stop offset=".676" stop-color="#2f2f2f" stop-opacity=".192"/><stop offset="1" stop-color="#6c696a" stop-opacity="0"/></linearGradient><linearGradient id="f" x1="1" y1=".601" x2=".092" y2=".019" gradientUnits="objectBoundingBox"><stop offset="0"/><stop offset=".909" stop-color="#676767" stop-opacity=".094"/><stop offset="1" stop-color="#6c696a" stop-opacity="0"/></linearGradient><linearGradient id="g" x1=".896" y1=".738" x2=".051" y2=".267" gradientUnits="objectBoundingBox"><stop offset="0" stop-color="#fff" stop-opacity="0"/><stop offset="1"/></linearGradient><clipPath id="c"><path d="M3510.082 5957.668c0 207.978 476.13 656.192 562.669 230.374 26.744-131.591-90.511-170.466-227.79-402.122-66.943-112.965-334.879-36.23-334.879 171.748z" transform="translate(-3510.082 -5733.808)" fill="none"/></clipPath><clipPath id="d"><path d="M3408.313 5957.762c3.49 311.6 471.37 415.864 533.743 108.954 27.583-109 116.183-239.067-207.216-400.864-107.258 10.955-330.017-19.686-326.527 291.91z" transform="translate(-3408.272 -5665.852)" fill="none"/></clipPath><clipPath id="h"><path d="M3510.082 5868.79c0 125.406 287.1 395.669 339.276 138.91 16.126-79.347-54.576-102.787-137.352-242.47-40.365-68.115-201.924-21.846-201.924 103.56z" transform="translate(-3510.082 -5733.808)" fill="none"/></clipPath><clipPath id="a"><path d="M0 0h1920v1068H0z"/></clipPath></defs><g clip-path="url(#a)"><ellipse cx="555" cy="556.5" rx="555" ry="556.5" transform="rotate(83 880.07 1019.84)" fill="url(#b)"/><ellipse cx="322.322" cy="323.289" rx="322.322" ry="323.289" transform="rotate(14.98 2181.972 5217.757)" fill="#cbc9cc"/><g transform="translate(-123 64.48)" clip-path="url(#c)"><path d="M567.448-241.332h1.027v936.437h-1.027zM549.479-241.332h1.027v936.437h-1.027zM531.51-241.332h1.027v936.437h-1.027zM513.541-241.332h1.027v936.437h-1.027zM495.572-241.332h1.027v936.437h-1.027zM477.603-241.332h1.027v936.437h-1.027zM459.634-241.332h1.027v936.437h-1.027zM441.666-241.332h1.027v936.437h-1.027zM423.697-241.332h1.027v936.437h-1.027zM405.728-241.332h1.027v936.437h-1.027zM387.759-241.332h1.027v936.437h-1.027zM369.79-241.332h1.027v936.437h-1.027zM351.821-241.332h1.027v936.437h-1.027zM333.852-241.332h1.027v936.437h-1.027zM315.883-241.332h1.027v936.437h-1.027zM297.914-241.332h1.027v936.437h-1.027zM279.945-241.332h1.027v936.437h-1.027zM261.976-241.332h1.027v936.437h-1.027zM244.007-241.332h1.027v936.437h-1.027zM226.039-241.332h1.027v936.437h-1.027zM208.07-241.332h1.027v936.437h-1.027zM190.101-241.332h1.027v936.437h-1.027zM172.132-241.332h1.027v936.437h-1.027zM154.163-241.332h1.027v936.437h-1.027zM136.194-241.332h1.027v936.437h-1.027zM118.225-241.332h1.027v936.437h-1.027zM100.256-241.332h1.027v936.437h-1.027zM82.287-241.332h1.027v936.437h-1.027zM64.318-241.332h1.027v936.437h-1.027zM46.349-241.332h1.027v936.437h-1.027zM28.38-241.332h1.027v936.437H28.38zM10.412-241.332h1.027v936.437h-1.027zM-7.557-241.332h1.027v936.437h-1.027zM-25.526-241.332h1.027v936.437h-1.027zM-43.495-241.332h1.027v936.437h-1.027zM-61.464-241.332h1.027v936.437h-1.027zM-79.433-241.332h1.027v936.437h-1.027zM-97.402-241.332h1.027v936.437h-1.027zM-115.371-241.332h1.027v936.437h-1.027zM-133.34-241.332h1.027v936.437h-1.027zM-151.309-241.332h1.027v936.437h-1.027zM-169.278-241.332h1.027v936.437h-1.027zM-187.247-241.332h1.027v936.437h-1.027zM-205.215-241.332h1.027v936.437h-1.027zM-223.184-241.332h1.027v936.437h-1.027zM-241.153-241.332h1.027v936.437h-1.027zM-259.122-241.332h1.027v936.437h-1.027zM-277.091-241.332h1.027v936.437h-1.027zM-295.06-241.332h1.027v936.437h-1.027zM-313.029-241.332h1.027v936.437h-1.027zM-330.998-241.332h1.027v936.437h-1.027zM-348.967-241.332h1.027v936.437h-1.027zM-366.936-241.332h1.027v936.437h-1.027zM-384.905-241.332h1.027v936.437h-1.027zM-402.874-241.332h1.027v936.437h-1.027zM-420.842-241.332h1.027v936.437h-1.027zM-438.811-241.332h1.027v936.437h-1.027zM-456.78-241.332h1.027v936.437h-1.027zM-474.749-241.332h1.027v936.437h-1.027zM-492.718-241.332h1.027v936.437h-1.027zM-510.687-241.332h1.027v936.437h-1.027z"/></g><g transform="translate(1104.777 623.907)" clip-path="url(#d)"><path d="M565.371-18.961h.74V655.98h-.74zM552.42-18.961h.74V655.98h-.74zM539.469-18.961h.74V655.98h-.74zM526.518-18.961h.74V655.98h-.74zM513.566-18.961h.74V655.98h-.74zM500.615-18.961h.74V655.98h-.74zM487.664-18.961h.74V655.98h-.74zM474.713-18.961h.74V655.98h-.74zM461.762-18.961h.74V655.98h-.74zM448.811-18.961h.74V655.98h-.74zM435.86-18.961h.74V655.98h-.74zM422.908-18.961h.74V655.98h-.74zM409.957-18.961h.74V655.98h-.74zM397.006-18.961h.74V655.98h-.74zM384.055-18.961h.74V655.98h-.74zM371.104-18.961h.74V655.98h-.74zM358.152-18.961h.74V655.98h-.74zM345.201-18.961h.74V655.98h-.74zM332.25-18.961h.74V655.98h-.74zM319.299-18.961h.74V655.98h-.74zM306.348-18.961h.74V655.98h-.74zM293.397-18.961h.74V655.98h-.74zM280.445-18.961h.74V655.98h-.74zM267.494-18.961h.74V655.98h-.74zM254.543-18.961h.74V655.98h-.74zM241.592-18.961h.74V655.98h-.74zM228.641-18.961h.74V655.98h-.74zM215.69-18.961h.74V655.98h-.74zM202.738-18.961h.74V655.98h-.74zM189.787-18.961h.74V655.98h-.74zM176.836-18.961h.74V655.98h-.74zM163.885-18.961h.74V655.98h-.74zM150.934-18.961h.74V655.98h-.74zM137.983-18.961h.74V655.98h-.74zM125.031-18.961h.74V655.98h-.74zM112.08-18.961h.74V655.98h-.74zM99.129-18.961h.74V655.98h-.74zM86.178-18.961h.74V655.98h-.74zM73.227-18.961h.74V655.98h-.74zM60.276-18.961h.74V655.98h-.74zM47.324-18.961h.74V655.98h-.74zM34.373-18.961h.74V655.98h-.74zM21.422-18.961h.74V655.98h-.74zM8.471-18.961h.74V655.98h-.74zM-4.48-18.961h.74V655.98h-.74zM-17.431-18.961h.74V655.98h-.74zM-30.383-18.961h.74V655.98h-.74zM-43.334-18.961h.74V655.98h-.74zM-56.285-18.961h.74V655.98h-.74zM-69.236-18.961h.74V655.98h-.74zM-82.187-18.961h.74V655.98h-.74zM-95.138-18.961h.74V655.98h-.74zM-108.09-18.961h.74V655.98h-.74zM-121.041-18.961h.74V655.98h-.74zM-133.992-18.961h.74V655.98h-.74zM-146.943-18.961h.74V655.98h-.74zM-159.894-18.961h.74V655.98h-.74zM-172.846-18.961h.74V655.98h-.74zM-185.797-18.961h.74V655.98h-.74zM-198.748-18.961h.74V655.98h-.74zM-211.699-18.961h.74V655.98h-.74z"/></g><g opacity=".896"><path d="M264.423 825.561c0 .346 0 .68-.011 1.025a204.146 204.146 0 01-2.951 33.867l-116.412-19.436-86.421-14.432c-.167-.023-.333-.047-.5-.066A236.7 236.7 0 01-7.93 807.748a237.674 237.674 0 01-106.541-94.924c-.211-.35-.422-.7-.621-1.043a238.193 238.193 0 01-32.514-105.467.021.021 0 010-.033q-.549-8.139-.555-16.4v-9.982a207.067 207.067 0 012.673-33.285l118.075 19.477 85.545 14.119v.08h.5a235.666 235.666 0 0164.361 18.764 240.392 240.392 0 01106.701 95.42c.21.346.41.7.621 1.055a238.757 238.757 0 0130.889 87.809q1.414 9.832 2.018 19.906a208.936 208.936 0 011.201 22.317z"/><path d="M-55.435-5213.949v.387a205.249 205.249 0 01-34.726 114.191 240.414 240.414 0 00-106.707-95.429 235.941 235.941 0 00-64.361-18.766h-.5v-.074l-85.545-14.119-118.076-19.475a205.494 205.494 0 0144.431-97.937 205.888 205.888 0 01159.19-75.074 205.87 205.87 0 01159.19 75.074 205.462 205.462 0 0147.104 131.222z" transform="translate(319.857 5793.842)" fill="url(#e)"/><path d="M-58.133-4967.1a204.593 204.593 0 01-44.064 95.885 206.084 206.084 0 01-159.268 74.963 206.118 206.118 0 01-159.268-74.963 204.518 204.518 0 01-47.015-129.754c-.011-.344-.011-.676-.011-1.021a204.48 204.48 0 0133.695-112.736 237.681 237.681 0 00106.541 94.922 236.7 236.7 0 0066.058 18.771c.166.02.333.043.5.064l86.421 14.432z" transform="translate(319.594 5827.174)" fill="url(#f)"/></g><path fill="#181818" d="M1826.543 427.24V64.95h136.665v362.29z"/><ellipse cx="123.127" cy="123.449" rx="123.127" ry="123.449" transform="rotate(180 917.521 56.141)" fill="url(#g)"/><g transform="translate(313.457 -201.145)" clip-path="url(#h)"><g fill="#fff"><path d="M342.158-145.517h.619v564.65h-.619zM331.324-145.517h.619v564.65h-.619zM320.489-145.517h.619v564.65h-.619zM309.654-145.517h.619v564.65h-.619zM298.819-145.517h.619v564.65h-.619zM287.984-145.517h.619v564.65h-.619zM277.149-145.517h.619v564.65h-.619zM266.315-145.517h.619v564.65h-.619zM255.48-145.517h.619v564.65h-.619zM244.645-145.517h.619v564.65h-.619zM233.81-145.517h.619v564.65h-.619zM222.975-145.517h.619v564.65h-.619zM212.14-145.517h.619v564.65h-.619zM201.306-145.517h.619v564.65h-.619zM190.471-145.517h.619v564.65h-.619zM179.636-145.517h.619v564.65h-.619zM168.801-145.517h.619v564.65h-.619zM157.966-145.517h.619v564.65h-.619zM147.131-145.517h.619v564.65h-.619zM136.297-145.517h.619v564.65h-.619zM125.462-145.517h.619v564.65h-.619zM114.627-145.517h.619v564.65h-.619zM103.792-145.517h.619v564.65h-.619zM92.957-145.517h.619v564.65h-.619zM82.122-145.517h.619v564.65h-.619zM71.287-145.517h.619v564.65h-.619zM60.453-145.517h.619v564.65h-.619zM49.618-145.517h.619v564.65h-.619zM38.783-145.517h.619v564.65h-.619zM27.948-145.517h.619v564.65h-.619zM17.113-145.517h.619v564.65h-.619zM6.278-145.517h.619v564.65h-.619zM-4.556-145.517h.619v564.65h-.619zM-15.391-145.517h.619v564.65h-.619zM-26.226-145.517h.619v564.65h-.619zM-37.061-145.517h.619v564.65h-.619zM-47.896-145.517h.619v564.65h-.619zM-58.731-145.517h.619v564.65h-.619zM-69.565-145.517h.619v564.65h-.619zM-80.4-145.517h.619v564.65h-.619zM-91.235-145.517h.619v564.65h-.619zM-102.07-145.517h.619v564.65h-.619zM-112.905-145.517h.619v564.65h-.619zM-123.74-145.517h.619v564.65h-.619zM-134.575-145.517h.619v564.65h-.619zM-145.409-145.517h.619v564.65h-.619zM-156.244-145.517h.619v564.65h-.619zM-167.079-145.517h.619v564.65h-.619zM-177.914-145.517h.619v564.65h-.619zM-188.749-145.517h.619v564.65h-.619zM-199.584-145.517h.619v564.65h-.619zM-210.418-145.517h.619v564.65h-.619zM-221.253-145.517h.619v564.65h-.619zM-232.088-145.517h.619v564.65h-.619zM-242.923-145.517h.619v564.65h-.619zM-253.758-145.517h.619v564.65h-.619zM-264.593-145.517h.619v564.65h-.619zM-275.428-145.517h.619v564.65h-.619zM-286.262-145.517h.619v564.65h-.619zM-297.097-145.517h.619v564.65h-.619zM-307.932-145.517h.619v564.65h-.619z"/></g></g><g transform="rotate(90 -112.406 787.068)" clip-path="url(#h)"><g fill="#fff"><path d="M342.158-145.517h.619v564.65h-.619zM331.324-145.517h.619v564.65h-.619zM320.489-145.517h.619v564.65h-.619zM309.654-145.517h.619v564.65h-.619zM298.819-145.517h.619v564.65h-.619zM287.984-145.517h.619v564.65h-.619zM277.149-145.517h.619v564.65h-.619zM266.315-145.517h.619v564.65h-.619zM255.48-145.517h.619v564.65h-.619zM244.645-145.517h.619v564.65h-.619zM233.81-145.517h.619v564.65h-.619zM222.975-145.517h.619v564.65h-.619zM212.14-145.517h.619v564.65h-.619zM201.306-145.517h.619v564.65h-.619zM190.471-145.517h.619v564.65h-.619zM179.636-145.517h.619v564.65h-.619zM168.801-145.517h.619v564.65h-.619zM157.966-145.517h.619v564.65h-.619zM147.131-145.517h.619v564.65h-.619zM136.297-145.517h.619v564.65h-.619zM125.462-145.517h.619v564.65h-.619zM114.627-145.517h.619v564.65h-.619zM103.792-145.517h.619v564.65h-.619zM92.957-145.517h.619v564.65h-.619zM82.122-145.517h.619v564.65h-.619zM71.287-145.517h.619v564.65h-.619zM60.453-145.517h.619v564.65h-.619zM49.618-145.517h.619v564.65h-.619zM38.783-145.517h.619v564.65h-.619zM27.948-145.517h.619v564.65h-.619zM17.113-145.517h.619v564.65h-.619zM6.278-145.517h.619v564.65h-.619zM-4.556-145.517h.619v564.65h-.619zM-15.391-145.517h.619v564.65h-.619zM-26.226-145.517h.619v564.65h-.619zM-37.061-145.517h.619v564.65h-.619zM-47.896-145.517h.619v564.65h-.619zM-58.731-145.517h.619v564.65h-.619zM-69.565-145.517h.619v564.65h-.619zM-80.4-145.517h.619v564.65h-.619zM-91.235-145.517h.619v564.65h-.619zM-102.07-145.517h.619v564.65h-.619zM-112.905-145.517h.619v564.65h-.619zM-123.74-145.517h.619v564.65h-.619zM-134.575-145.517h.619v564.65h-.619zM-145.409-145.517h.619v564.65h-.619zM-156.244-145.517h.619v564.65h-.619zM-167.079-145.517h.619v564.65h-.619zM-177.914-145.517h.619v564.65h-.619zM-188.749-145.517h.619v564.65h-.619zM-199.584-145.517h.619v564.65h-.619zM-210.418-145.517h.619v564.65h-.619zM-221.253-145.517h.619v564.65h-.619zM-232.088-145.517h.619v564.65h-.619zM-242.923-145.517h.619v564.65h-.619zM-253.758-145.517h.619v564.65h-.619zM-264.593-145.517h.619v564.65h-.619zM-275.428-145.517h.619v564.65h-.619zM-286.262-145.517h.619v564.65h-.619zM-297.097-145.517h.619v564.65h-.619zM-307.932-145.517h.619v564.65h-.619z"/></g></g><ellipse cx="83.918" cy="84.772" rx="83.918" ry="84.772" transform="rotate(105.01 701.545 629.146)" fill="none" stroke="#fff"/></g></svg>